<?xml version="1.0" encoding="UTF-8"?>
<svg width="12px" height="8px" viewBox="0 0 12 8" version="1.1" xmlns="http://www.w3.org/2000/svg" xmlns:xlink="http://www.w3.org/1999/xlink">
    <!-- Generator: Sketch 48 (47235) - http://www.bohemiancoding.com/sketch -->
    <title>angle-arrow-down</title>
    <desc>Created with Sketch.</desc>
    <defs></defs>
    <g id="Главная-—-Поиск--—--отелей-—-по-каталогу-(1440)-" stroke="none" stroke-width="1" fill="none" fill-rule="evenodd" transform="translate(-1387.000000, -27.000000)">
        <g id="Group-47" fill="#A5A6AD" fill-rule="nonzero">
            <g id="Group-24">
                <g id="Group-7-Copy-12" transform="translate(1186.000000, 13.000000)">
                    <g id="angle-arrow-down" transform="translate(207.000000, 18.000000) rotate(-270.000000) translate(-207.000000, -18.000000) translate(203.000000, 12.000000)">
                        <g id="Capa_1">
                            <path d="M9.35728753,3.20957784 L8.78790914,2.64023934 C8.71203989,2.56421053 8.62464266,2.52631579 8.52583712,2.52631579 C8.42727091,2.52631579 8.33991357,2.56421053 8.26404432,2.64023934 L3.78811745,7.11592687 L-0.687609972,2.640359 C-0.763519114,2.56433019 -0.850876454,2.52643546 -0.949562327,2.52643546 C-1.04828809,2.52643546 -1.13564543,2.56433019 -1.21151468,2.640359 L-1.7808133,3.2097374 C-1.85684211,3.28560665 -1.89473684,3.37296399 -1.89473684,3.47168975 C-1.89473684,3.57033573 -1.85672244,3.65769307 -1.7808133,3.73356233 L3.5261651,9.04066039 C3.60203435,9.11656953 3.68943158,9.15450416 3.78811745,9.15450416 C3.88680332,9.15450416 3.974041,9.11656953 4.04987036,9.04066039 L9.35728753,3.73356233 C9.43315679,3.65765319 9.47085208,3.57029584 9.47085208,3.47168975 C9.47085208,3.37296399 9.43315679,3.28560665 9.35728753,3.20957784 Z" id="Shape" transform="translate(3.788058, 5.840410) rotate(-90.000000) translate(-3.788058, -5.840410) "></path>
                        </g>
                    </g>
                </g>
            </g>
        </g>
    </g>
</svg>