<?xml version="1.0" encoding="UTF-8"?>
<svg width="17px" height="17px" viewBox="0 0 17 17" version="1.1" xmlns="http://www.w3.org/2000/svg" xmlns:xlink="http://www.w3.org/1999/xlink">
    <!-- Generator: Sketch 48 (47235) - http://www.bohemiancoding.com/sketch -->
    <title>Capa_1</title>
    <desc>Created with Sketch.</desc>
    <defs></defs>
    <g id="Главная-—-Поиск--—--отелей-—-по-каталогу-(1440)-" stroke="none" stroke-width="1" fill="none" fill-rule="evenodd" transform="translate(-20.000000, -160.000000)">
        <g id="hotel-letter-h-sign-inside-a-black-rounded-square" transform="translate(20.000000, 160.000000)" fill="#FFB63D" fill-rule="nonzero">
            <g id="Capa_1">
                <path d="M16.0554963,0.934599148 C15.4326239,0.311571792 14.6821706,0 13.8047175,0 L3.18574484,0 C2.30829173,0 1.55783841,0.311571792 0.93469482,0.934599148 C0.311667464,1.55774273 9.56719819e-05,2.30815731 9.56719819e-05,3.18564917 L9.56719819e-05,13.8045056 C9.56719819e-05,14.6819199 0.311667464,15.432412 0.93469482,16.0555556 C1.55783841,16.6786992 2.30829173,16.990271 3.18574484,16.990271 L13.8046012,16.990271 C14.6820544,16.990271 15.4325077,16.6786992 16.0553801,16.0555556 C16.6785237,15.432412 16.9900954,14.6819587 16.9900954,13.8045056 L16.9900954,3.18564917 C16.9900567,2.30815731 16.6784849,1.5576265 16.0554963,0.934599148 Z M14.1585967,13.4505101 C14.1585967,13.6422108 14.088433,13.8081862 13.9485705,13.9482424 C13.8082818,14.0884923 13.6423065,14.158501 13.450567,14.158501 L12.0348177,14.158501 C11.8431169,14.158501 11.6771029,14.0884923 11.5370854,13.9482424 C11.3970679,13.8082249 11.326788,13.6422496 11.326788,13.4505101 L11.326788,9.91102046 L5.66359682,9.91102046 L5.66359682,13.4505101 C5.66359682,13.6422108 5.5935106,13.8081862 5.45345439,13.9482424 C5.31316572,14.0884923 5.14722914,14.158501 4.9556059,14.158501 L3.53966281,14.158501 C3.34796209,14.158501 3.18210299,14.0884923 3.04193056,13.9482424 C2.90187435,13.8082249 2.83178813,13.6422496 2.83178813,13.4505101 L2.83178813,3.53956714 C2.83178813,3.34782767 2.90187435,3.18185235 3.04193056,3.04183488 C3.18206425,2.90166245 3.34792335,2.83153748 3.53966281,2.83153748 L4.95548967,2.83153748 C5.14726788,2.83153748 5.31320446,2.90166245 5.45333816,3.04183488 C5.59339437,3.18185235 5.66348059,3.34782767 5.66348059,3.53956714 L5.66348059,7.07913429 L11.3268655,7.07913429 L11.3268655,3.53956714 C11.3268655,3.34782767 11.3968742,3.18185235 11.5368917,3.04183488 C11.6771416,2.90166245 11.8431557,2.83153748 12.034624,2.83153748 L13.4506445,2.83153748 C13.6423453,2.83153748 13.8083206,2.90166245 13.948648,3.04183488 C14.0886267,3.18185235 14.1586742,3.34782767 14.1586742,3.53956714 L14.1586742,13.4505101 L14.1585967,13.4505101 Z" id="Shape"></path>
            </g>
        </g>
    </g>
</svg>