<?xml version="1.0" encoding="UTF-8"?>
<svg width="32px" height="32px" viewBox="0 0 32 32" version="1.1" xmlns="http://www.w3.org/2000/svg" xmlns:xlink="http://www.w3.org/1999/xlink">
    <!-- Generator: Sketch 48 (47235) - http://www.bohemiancoding.com/sketch -->
    <title>user (11)</title>
    <desc>Created with Sketch.</desc>
    <defs></defs>
    <g id="Главная-—-Поиск--—--отелей-—-по-каталогу-(1440)-" stroke="none" stroke-width="1" fill="none" fill-rule="evenodd" transform="translate(-1186.000000, -13.000000)">
        <g id="Group-47" fill-rule="nonzero">
            <g id="Group-24">
                <g id="Group-7-Copy-12" transform="translate(1186.000000, 13.000000)">
                    <g id="user-(11)">
                        <g id="Capa_1">
                            <g id="Group">
                                <path d="M31.9745085,23.6474576 C31.9115932,23.4484068 31.7391186,23.3035932 31.5330169,23.2743051 L27.3149831,22.683661 L25.4318644,19.0063729 C25.2463729,18.6440678 24.6519322,18.6440678 24.4669831,19.0063729 L22.5838644,22.683661 L18.3658305,23.2743051 C18.1591864,23.3035932 17.9872542,23.4478644 17.924339,23.6474576 C17.8614237,23.8470508 17.9178305,24.064 18.0702373,24.2066441 L21.1102373,27.063322 L20.3932203,31.0915254 C20.3574237,31.2938305 20.4387797,31.4993898 20.603661,31.6219661 C20.7690847,31.7450847 20.9892881,31.7646102 21.1726102,31.6702373 L24.9491525,29.7562034 L28.7262373,31.6696949 C28.8037966,31.7092881 28.8878644,31.7282712 28.9713898,31.7282712 C29.0858305,31.7282712 29.1997288,31.6924746 29.2951864,31.6214237 C29.4600678,31.4988475 29.5414237,31.2938305 29.5056271,31.0909831 L28.7891525,27.0627797 L31.8291525,24.2061017 C31.9810169,24.064 32.0374237,23.8465085 31.9745085,23.6474576 Z M27.8318644,26.4737627 C27.6984407,26.5990508 27.6371525,26.7834576 27.6691525,26.9635254 L28.2462373,30.2107119 L25.1937627,28.6638644 C25.1162034,28.6248136 25.032678,28.6052881 24.9486102,28.6052881 C24.8645424,28.6052881 24.7804746,28.6248136 24.7034576,28.6638644 L21.6509831,30.2107119 L22.2280678,26.9635254 C22.2606102,26.7834576 22.1987797,26.5990508 22.0653559,26.4737627 L19.6360678,24.192 L23.012339,23.7190508 C23.1869831,23.6946441 23.3393898,23.5867119 23.419661,23.4294237 L24.9491525,20.4442034 L26.4775593,23.4294237 C26.5578305,23.5867119 26.7102373,23.6946441 26.8848814,23.7190508 L30.2611525,24.192 L27.8318644,26.4737627 Z" id="Shape" fill="#FFB63D"></path>
                                <path d="M14.3338305,22.5073898 C14.3967458,22.308339 14.5692203,22.1635254 14.775322,22.1342373 L18.3419661,21.6347119 L18.3419661,20.2532881 C18.4482712,20.1220339 18.5605424,19.9734237 18.6766102,19.8101695 C19.2710508,18.9705763 19.7477966,18.0366102 20.0954576,17.0315932 C20.7826441,16.7050847 21.2263051,16.0206102 21.2263051,15.2477288 L21.2263051,13.3250169 C21.2263051,12.8547797 21.0538305,12.3986441 20.7452203,12.0401356 L20.7452203,9.50888136 C20.7734237,9.22684746 20.8732203,7.63877966 19.7239322,6.32840678 C18.724339,5.18779661 17.1064407,4.61016949 14.9147119,4.61016949 C12.7229831,4.61016949 11.1050847,5.18779661 10.1054915,6.32840678 C8.95620339,7.63877966 9.056,9.2279322 9.08420339,9.50888136 L9.08420339,12.0401356 C8.77613559,12.3986441 8.60311864,12.8547797 8.60311864,13.3250169 L8.60311864,15.2477288 C8.60311864,15.8448814 8.87105085,16.4018983 9.32989831,16.7777627 C9.76922034,18.4987119 10.6733559,19.8014915 11.0074576,20.2429831 L11.0074576,21.8126102 C11.0074576,22.2551864 10.7661017,22.6619661 10.3772203,22.8745763 L6.08867797,25.2138305 C5.952,25.2881356 5.81640678,25.3749153 5.68081356,25.472 C2.86155932,22.9374915 1.08474576,19.2661695 1.08474576,15.1858983 C1.08474576,7.55959322 7.28894915,1.35538983 14.9152542,1.35538983 C22.5415593,1.35538983 28.7457627,7.56013559 28.7457627,15.1858983 C28.7457627,16.9247458 28.4197966,18.587661 27.8307797,20.1214915 L28.3774915,21.1894237 L28.5543051,21.2143729 C29.3732881,19.3697627 29.8305085,17.3309831 29.8305085,15.1858983 C29.8305085,6.96189831 23.1392542,0.270644068 14.9152542,0.270644068 C6.69125424,0.270644068 0,6.96189831 0,15.1858983 C0,19.5297627 1.8679322,23.4451525 4.84122034,26.1732881 L4.82711864,26.1857627 L5.31091525,26.5936271 C5.34237288,26.6202034 5.37654237,26.6418983 5.408,26.6679322 C5.66508475,26.8810847 5.93138983,27.0833898 6.20257627,27.2791864 C6.29044068,27.3426441 6.37830508,27.4066441 6.46779661,27.4679322 C6.75742373,27.6675254 7.05464407,27.8568136 7.35837288,28.036339 C7.42454237,28.0753898 7.49125424,28.1133559 7.5579661,28.151322 C7.89044068,28.3406102 8.2299661,28.5190508 8.57762712,28.6828475 C8.60311864,28.6947797 8.62915254,28.7056271 8.65464407,28.7175593 C9.78766102,29.2442034 10.9971525,29.6309153 12.2619661,29.8592542 C12.2950508,29.8652203 12.3281356,29.8711864 12.3617627,29.8771525 C12.7544407,29.9449492 13.1514576,29.9991864 13.5533559,30.0355254 C13.6021695,30.0398644 13.6509831,30.0425763 13.700339,30.0469153 C14.1022373,30.0794576 14.5068475,30.1006102 14.9168814,30.1006102 C15.3231186,30.1006102 15.7239322,30.0794576 16.1220339,30.0474576 C16.1724746,30.0431186 16.2229153,30.0404068 16.2733559,30.0360678 C16.672,29.9997288 17.0657627,29.9471186 17.4546441,29.8804068 C17.4882712,29.8744407 17.5224407,29.8684746 17.5560678,29.8619661 C18.0550508,29.7724746 18.5421017,29.6515254 19.0226441,29.5137627 L19.3551186,27.6447458 L14.4813559,23.0654915 C14.327322,22.9233898 14.2709153,22.7064407 14.3338305,22.5073898 Z" id="Shape" fill="#787C8B"></path>
                            </g>
                        </g>
                    </g>
                </g>
            </g>
        </g>
    </g>
</svg>